<svg xmlns="http://www.w3.org/2000/svg" height="2048" preserveAspectRatio="none" style="display: block;" version="1.1" viewBox="0 0 2048 2048" width="2048">
<path fill-rule="evenodd" d="M 791.528 537.983 C 844.006 536.915 900.199 537.822 952.968 537.818 L 1258.09 537.918 L 1258.17 702.753 C 1258.24 767.43 1262.77 829.023 1236.6 889.964 C 1219.55 929.655 1199.33 956.957 1169.52 987.309 C 1135.05 1023.01 1071.24 1059.89 1023.68 1074.04 C 964.204 1052.39 916.953 1027.19 872.49 981.191 C 784.429 890.095 791.123 813.222 791.241 699.244 L 791.528 537.983 z M 813.472 560.191 L 1235.72 560.046 L 1235.72 721.756 C 1235.76 742.494 1235.79 763.255 1235.68 783.991 C 1235.29 858.15 1206.76 918.317 1154.98 970.313 C 1120.67 1004.62 1069.51 1034.6 1023.44 1049.83 C 932.488 1016.47 848.526 950.577 822.107 852.949 C 809.611 806.769 813.385 749.714 813.494 701.319 L 813.472 560.191 z" fill="rgb(178,156,102)" transform="translate(0,0)"></path>
<path d="M 1169.79 619.304 C 1198 617.722 1213.77 644.486 1209.91 670.1 C 1204.95 703.46 1178.59 750.64 1142.95 757.745 C 1121.89 761.945 1103.86 747.846 1086.44 769.26 C 1074.47 783.968 1063.02 800.188 1051.72 815.394 L 981.335 910.26 C 974.709 919.227 954.967 947.137 947.478 952.983 C 931.753 960.417 915.098 954.052 911.26 936.263 C 908.019 921.247 922.227 911.679 931.393 902.529 C 936.46 897.47 942.174 892.271 947.475 887.179 C 975.771 859.915 1003.74 832.308 1031.36 804.365 C 1044.12 791.551 1073.03 765.343 1081.07 751.04 C 1090.52 734.243 1076.7 712.716 1084.51 686.552 C 1086.83 678.949 1090.47 671.816 1095.27 665.483 C 1113.04 641.591 1140 623.507 1169.79 619.304 z" fill="rgb(210,210,210)" transform="translate(0,0)"></path>
<path d="M 856.313 615.464 C 868.031 626.382 892.164 656 903.763 669.43 C 931.324 701.134 959.049 732.695 986.938 764.111 C 997.28 775.768 1012.68 794.581 1022.95 805.128 L 1009.69 817.805 C 1003.24 800.031 995.779 789.734 975.736 797.674 C 973.992 798.372 972.261 799.105 970.546 799.871 L 968.454 799.408 C 965.476 795.312 962.074 791.883 958.728 788.091 C 926.575 751.646 890.544 716.566 868.591 672.626 C 860.754 656.94 852.426 633.035 856.313 615.464 z" fill="rgb(210,210,210)" transform="translate(0,0)"></path>
<path d="M 1040.87 629.271 C 1040.38 625.614 1039.01 596.524 1040.74 595.15 C 1042.1 594.948 1042.24 597.43 1042.34 598.226 C 1048.15 623.892 1060.87 691.275 1047.26 713.244 C 1042.9 720.282 1035.53 725.332 1031.65 732.691 C 1025.87 743.647 1030.2 788.949 1030.05 803.979 C 1023.98 798.98 1019.39 793.643 1014.14 787.85 C 1014.04 778.249 1013.57 761.24 1014.49 751.042 C 1016.69 726.588 1000.16 724.472 993.701 708.255 C 984.402 684.921 995.832 615.285 1001.6 594.254 C 1003.43 621.381 1002.63 648.188 1002.39 675.351 C 1002.36 678.716 1002.64 679.875 1004.43 682.464 C 1007.83 682.791 1006.32 683.216 1009.08 680.976 C 1012.29 664.245 1009.44 610.734 1014.51 596.968 C 1016.2 602.6 1016.39 610.629 1016.73 616.681 C 1017.5 629.741 1018.03 642.814 1018.35 655.892 C 1018.51 661.676 1018.53 674.935 1019.5 679.891 C 1022.43 681.267 1020.97 681.154 1024.03 680.321 C 1027.19 674.558 1023.91 603.125 1028.28 595.939 C 1034.98 607.121 1030.11 678.858 1038.37 683.043 C 1040.23 681.558 1041.26 680.69 1041.27 677.621 C 1041.36 661.735 1041.09 645.105 1040.87 629.271 z" fill="rgb(210,210,210)" transform="translate(0,0)"></path>
<path d="M 1040.87 629.271 C 1040.38 625.614 1039.01 596.524 1040.74 595.15 C 1042.1 594.948 1042.24 597.43 1042.34 598.226 C 1040.03 603.654 1041.41 621.309 1040.87 629.271 z" fill="rgb(230,230,230)" transform="translate(0,0)"></path>
<path d="M 1046.17 830.493 C 1056.04 834.403 1113.37 903.23 1128.07 915.249 C 1143.21 927.62 1147.04 947.828 1125.31 958.43 C 1117.6 959.961 1109.41 959.476 1103.84 953.461 C 1093.3 942.058 1084.22 927.626 1075.33 914.911 C 1060.68 893.813 1045.65 872.983 1030.24 852.433 L 1046.17 830.493 z" fill="rgb(210,210,210)" transform="translate(0,0)"></path>
<path d="M 1026.63 857.485 C 1033.76 860.657 1036.91 870.245 1037.47 877.441 C 1038.8 896.282 1040.03 915.13 1041.14 933.985 C 1041.98 947.225 1043.65 962.985 1042.28 976.034 C 1041.06 987.599 1028.38 991.823 1018.7 992.156 C 996.057 985.313 1001.62 968.046 1002.37 948.771 L 1005.13 885.91 C 1011.5 876.549 1019.63 866.527 1026.63 857.485 z" fill="rgb(210,210,210)" transform="translate(0,0)"></path>
<path d="M 966.111 801.395 L 965.012 803.22 L 963.278 802.752 C 930.256 766.553 891.786 727.599 866.499 685.365 C 854.694 665.648 843.948 636.166 849.923 613.235 C 850.828 609.763 850.427 610.382 853.125 608.899 C 846.671 681.886 904.746 729.196 948.065 780.314 C 952.512 785.561 963.599 796.069 966.111 801.395 z" fill="rgb(210,210,210)" transform="translate(0,0)"></path>
<path fill-rule="evenodd" d="M 1400.53 1160.06 C 1446.87 1152.64 1490.44 1184.2 1497.83 1230.54 C 1505.22 1276.88 1473.62 1320.43 1427.28 1327.79 C 1380.98 1335.13 1337.48 1303.58 1330.1 1257.28 C 1322.72 1210.99 1354.25 1167.47 1400.53 1160.06 z M 1408.38 1163.18 C 1439.71 1161.58 1454.19 1192.98 1457.73 1219.51 C 1462.38 1254.43 1458.78 1311.29 1418.8 1324.72 C 1357.22 1329.14 1348.91 1181.29 1408.38 1163.18 z" fill="rgb(255,255,255)" transform="translate(0,0)"></path>
<path fill-rule="evenodd" d="M 571.331 1161.85 C 612.836 1161.59 656.609 1154.98 688.637 1186.87 C 721.938 1220.03 719.943 1270.84 687.815 1303.93 C 652.877 1334.83 616.741 1328.19 571.827 1327.98 L 571.331 1161.85 z M 607.847 1168.3 C 622.553 1168.21 638.505 1166.15 650.623 1174.84 C 663.476 1184.05 670.075 1199.04 672.479 1214.22 C 676.978 1242.66 677.117 1282.66 660.208 1307.19 C 659.006 1308.52 657.769 1309.81 656.498 1311.08 C 643.79 1323.59 624.276 1321.55 607.682 1321.4 L 607.847 1168.3 z" fill="rgb(255,255,255)" transform="translate(0,0)"></path>
<path fill-rule="evenodd" d="M 1040.96 1156.31 C 1071.91 1153.37 1097.55 1169.04 1085.76 1204.46 C 1081.32 1217.81 1068.57 1223.98 1056.35 1229.04 C 1074.85 1249.58 1093.76 1269.73 1113.08 1289.5 C 1116.74 1283.22 1126.37 1256.36 1130.58 1255.65 L 1131.32 1257.75 C 1129.43 1271.66 1124.07 1281.85 1117.57 1294.03 C 1122.74 1299.46 1142.69 1319.28 1144.86 1325.24 C 1142.74 1326.87 1140.11 1326.38 1137.25 1326.34 C 1129.19 1326.45 1120.87 1326.27 1112.79 1326.19 L 1099.2 1312.16 C 1095.67 1315 1091.92 1317.56 1087.99 1319.81 C 1046.75 1343.28 971.208 1328.03 990.326 1264.99 C 995.188 1248.96 1009.59 1239.57 1023.94 1232.69 C 995.971 1201.97 992.338 1165.86 1040.96 1156.31 z M 1032.02 1241.74 C 1037.62 1246.3 1046.29 1257.5 1051.77 1263.2 C 1066.65 1278.68 1081.4 1294.52 1096.77 1309.51 C 1089.62 1313.82 1085.24 1316.41 1077.47 1319.42 C 1030.73 1332.98 996.979 1271.76 1032.02 1241.74 z M 1046.04 1162.19 C 1057.94 1161.21 1069.96 1163.55 1075.24 1174.92 C 1085.49 1196.96 1077.42 1212.56 1058.72 1222.96 C 1058.01 1223.4 1054.47 1225.92 1053.54 1224.99 C 1040.23 1211.67 1022.88 1194.32 1031.64 1173.8 C 1034.39 1167.36 1039.83 1164.45 1046.04 1162.19 z" fill="rgb(255,255,255)" transform="translate(0,0)"></path>

<path d="M 795.451 1161.62 C 805.16 1161.91 810.017 1161.17 820.73 1162.09 C 850.885 1197.12 883.706 1235.59 912.513 1271.65 C 912.807 1257.47 910.712 1167.42 913.828 1162.24 L 916.014 1161.75 L 917.688 1163.01 L 917.865 1267.83 C 917.908 1286.65 918.746 1310.4 917.674 1328.84 C 912.245 1333.2 908.08 1327.22 904.699 1323.09 L 800.09 1199.55 C 799.924 1214.44 801.551 1320.63 798.535 1327.19 L 797.086 1327.17 C 793.562 1321.21 795.011 1300.87 794.996 1292.8 L 794.866 1231.81 L 794.841 1187.75 C 794.852 1180.72 794.521 1168.17 795.451 1161.62 z" fill="rgb(255,255,255)" transform="translate(0,0)"></path>
<path d="M 1517.01 1160.96 C 1526.22 1160.74 1531.88 1160.79 1541.01 1161.57 L 1633.17 1271.44 L 1633.06 1200.71 C 1633.03 1189 1632.65 1176.27 1633.49 1164.64 C 1633.6 1163.12 1633.55 1163.71 1635.13 1162.48 L 1637.78 1162.83 C 1639.78 1170.36 1639.76 1325.77 1637.9 1328.99 C 1637.22 1330.15 1636.27 1330.09 1635.08 1330.44 C 1630 1328.88 1631.86 1329.93 1628.24 1326.12 C 1593.71 1284.55 1557.41 1242.47 1522.28 1201.38 L 1522.25 1285 C 1522.26 1296.59 1523.09 1316.25 1522 1326.98 C 1519.71 1328.6 1520.96 1328.22 1518.06 1327.75 C 1515.01 1322.22 1516.92 1179.62 1517.01 1160.96 z" fill="rgb(255,255,255)" transform="translate(0,0)"></path>
<path d="M 1700.25 1158.25 C 1716 1157.15 1751.76 1162.05 1760.85 1175.86 C 1761.25 1179.32 1761.79 1177.98 1760.03 1180.27 C 1753.28 1179.97 1740.22 1162.68 1713.93 1164.83 C 1707.23 1165.38 1700.62 1167.66 1696.34 1173.11 C 1691.94 1178.71 1689.17 1186.95 1690.38 1194.07 C 1694.67 1219.47 1738.08 1228.27 1756.73 1241.16 C 1768.21 1249.1 1777.36 1260.14 1779.65 1274.29 C 1781.53 1285.99 1779.04 1300.84 1771.6 1310.35 C 1760.03 1325.11 1740.64 1328.79 1723.15 1330.9 C 1722.22 1330.92 1721.3 1330.93 1720.38 1330.94 C 1701.57 1330.92 1677.85 1322.26 1662.64 1309.65 C 1660.71 1308.05 1660.81 1306.36 1661.05 1304.1 L 1662.89 1303.46 C 1667.34 1304.94 1674.1 1310.54 1678.71 1313.8 C 1702.23 1330.41 1749.18 1331.77 1741.48 1290.92 C 1738.29 1273.98 1705.59 1260.33 1690.1 1251.55 C 1661.89 1235.55 1647.3 1208.59 1665.47 1177.34 C 1672.41 1165.38 1686.61 1160.58 1700.25 1158.25 z" fill="rgb(255,255,255)" transform="translate(0,0)"></path>
<path d="M 1237.91 1158.33 C 1253.97 1157.15 1271.57 1158.72 1285.86 1167.2 C 1289.15 1169.15 1298.22 1175.36 1299 1179.02 C 1293.17 1180.52 1282.49 1170.06 1275.54 1167.84 C 1254.03 1160.95 1224.74 1164.01 1228.53 1193.83 C 1230.83 1211.92 1250.22 1219.36 1264.97 1225.88 C 1286.92 1235.64 1315.03 1247.75 1317.51 1275.55 C 1321.15 1316.43 1293.83 1327.17 1260.24 1330.83 C 1246.34 1330.56 1232.51 1328.94 1220.2 1321.78 C 1214.94 1318.71 1201.66 1310.7 1198.11 1306.17 L 1198.99 1304.51 C 1206.41 1302.52 1230.76 1329.43 1258.5 1324.11 C 1265.49 1322.77 1271.79 1320.27 1275.77 1314.08 C 1279.77 1307.86 1281.44 1299.23 1279.85 1292 C 1275.26 1271.03 1239.93 1259.25 1223.36 1248.83 C 1211.04 1241.09 1200.03 1230.27 1197.03 1215.46 C 1194.31 1202 1195.4 1187.9 1203.59 1176.48 C 1211.92 1164.87 1224.37 1160.39 1237.91 1158.33 z" fill="rgb(255,255,255)" transform="translate(0,0)"></path>
<path d="M 416.726 1161.71 L 453.935 1161.77 L 453.707 1233.47 C 453.64 1260.41 449.985 1295.2 473.815 1314.6 C 488.704 1326.72 511.339 1322.92 524.578 1309.82 C 544.601 1289.99 541.203 1260.46 541.104 1234.61 L 540.806 1182.07 C 540.78 1176.71 539.73 1165.78 542.792 1161.97 L 544.66 1162.01 C 546.92 1164.88 546.179 1164.22 546.313 1168.75 L 546.352 1235.67 C 546.376 1249.91 547.327 1273.32 544.298 1286.24 C 542.027 1296.33 537.023 1305.6 529.833 1313.04 C 504.429 1339.09 455.562 1335.04 430.015 1310.68 C 413.288 1294.73 416.758 1257.74 416.736 1235.53 L 416.726 1161.71 z" fill="rgb(255,255,255)" transform="translate(0,0)"></path>
<path d="M 725.243 1161.82 L 765.035 1161.88 L 765.163 1328.05 L 725.505 1327.96 L 725.243 1161.82 z" fill="rgb(255,255,255)" transform="translate(0,0)"></path>
<path d="M 314.491 1247.13 L 345.289 1220.16 C 365.489 1253.4 387.19 1286.95 413.732 1315.58 C 431.104 1334.32 445.939 1342.69 471.256 1345.19 C 472.644 1345.11 475.318 1344.77 476.46 1345.75 C 476.884 1347.07 473.907 1347.25 473.271 1347.36 L 471.812 1347.59 C 452.729 1352.22 432.806 1352.12 413.772 1347.29 C 364.131 1334.78 338.813 1288.1 314.491 1247.13 z" fill="rgb(255,255,255)" transform="translate(0,0)"></path>
<path d="M 471.256 1345.19 C 472.644 1345.11 475.318 1344.77 476.46 1345.75 C 476.884 1347.07 473.907 1347.25 473.271 1347.36 L 471.812 1347.59 C 471.963 1346.15 472.051 1346.25 471.256 1345.19 z" fill="rgb(190,190,190)" transform="translate(0,0)"></path>
<path d="M 394.703 1162 C 397.414 1162.12 399.252 1161.71 401.183 1162.95 C 397.803 1167.08 375.746 1185.3 370.441 1189.89 L 308.755 1244.06 L 308.751 1330.13 L 275.75 1330.1 C 271.858 1330.07 273.185 1330.74 270.297 1329.14 C 268.843 1318.87 269.779 1283.05 269.859 1270.69 C 310.809 1235.03 352.738 1196.24 394.703 1162 z" fill="rgb(255,255,255)" transform="translate(0,0)"></path>
<path d="M 269.865 1159.92 C 282.688 1159.72 295.514 1159.66 308.338 1159.73 C 308.428 1181.47 309.088 1203.32 308.962 1225.06 C 303.24 1230.3 298.034 1234.3 292.406 1239.24 C 284.899 1245.96 277.368 1252.26 269.881 1259.04 L 269.865 1159.92 z" fill="rgb(255,255,255)" transform="translate(0,0)"></path>
<path fill-rule="evenodd" d="M 895.344 1407.57 C 905.625 1407.65 921.075 1406.86 930.958 1408.35 C 938.403 1409.46 941.868 1421.9 938.527 1428.15 C 935.767 1433.31 932.606 1433.62 927.341 1435.92 C 931.898 1442.28 935.914 1448.67 940.555 1454.88 C 936.566 1455 932.19 1454.91 928.15 1454.94 C 925.959 1453.24 928.002 1453.18 927.738 1452.47 C 925.828 1447.33 919.944 1439.83 916.678 1435.29 C 912.444 1435.23 908.21 1435.2 903.976 1435.2 C 903.929 1441.79 903.942 1448.39 904.012 1454.98 C 902.659 1454.98 894.916 1455.36 894.317 1454.4 C 894.635 1451.47 895.686 1453.67 895.53 1447.99 L 895.344 1407.57 z M 903.877 1414.72 C 907.469 1414.73 923.728 1414.57 926.038 1415.02 C 927.764 1415.38 929.274 1416.41 930.229 1417.89 C 931.92 1420.56 931.06 1423.64 930.439 1426.51 L 928.973 1426.87 C 923.264 1428.33 910.338 1427.78 903.91 1427.77 L 903.877 1414.72 z" fill="rgb(255,255,255)" transform="translate(0,0)"></path>
<path fill-rule="evenodd" d="M 1183.1 1407.41 C 1194.06 1407.39 1208.35 1407.15 1219 1408.07 C 1226.83 1408.75 1229.74 1421.29 1227.29 1427.58 C 1225.25 1432.82 1220.95 1433.61 1216.12 1435.92 C 1220.96 1443.26 1223.99 1448.15 1229.64 1454.83 C 1226.15 1455.09 1219.9 1454.83 1216.28 1454.8 C 1217.1 1449.08 1209.07 1440.55 1205.56 1435.08 L 1192.82 1435.06 L 1192.75 1449 C 1192.72 1451.95 1192.76 1451.59 1193.98 1454.04 C 1194.1 1454.29 1193.9 1454.53 1193.79 1454.63 C 1193.17 1455.18 1189.49 1454.93 1189.49 1454.93 C 1187.61 1454.9 1185.76 1455.17 1183.95 1454.74 C 1183.84 1454.72 1183.5 1454.61 1183.43 1454.46 C 1184.52 1451.07 1184.51 1452.37 1184.47 1448.55 L 1184.48 1414.5 C 1184.44 1410.62 1184.21 1410.98 1183.1 1407.41 z M 1192.27 1414.29 C 1200.86 1414.49 1225.17 1410.36 1218.99 1425.47 L 1218.41 1426.98 C 1212.13 1428.45 1199.54 1427.82 1192.61 1427.81 C 1192.35 1423.05 1192.26 1419.04 1192.27 1414.29 z" fill="rgb(255,255,255)" transform="translate(0,0)"></path>
<path d="M 1069.32 1407.17 C 1082.33 1406.61 1084.62 1408.66 1096.44 1412.91 L 1096.53 1412.83 C 1095.97 1414.45 1094.16 1420.54 1092.53 1421 C 1091.2 1420.64 1088.9 1417.17 1085 1416.33 C 1081.73 1414.93 1068.26 1413.67 1065.61 1416.29 C 1048.9 1432.78 1091.54 1417.89 1097.25 1436.48 C 1098.35 1440 1097.92 1443.81 1096.08 1447.01 C 1093.09 1452.16 1086.8 1454.26 1081.38 1455.48 C 1067.23 1455.85 1065.31 1454.17 1052.88 1449.34 C 1053.49 1447.64 1055.71 1440.88 1057.43 1440.54 C 1057.95 1440.76 1058.09 1440.71 1058.3 1441.29 C 1061.55 1449.59 1092.82 1452.31 1089.21 1439.46 C 1087.2 1432.31 1057.13 1438.66 1054.58 1426.63 C 1051.96 1414.33 1058.74 1409.93 1069.32 1407.17 z" fill="rgb(255,255,255)" transform="translate(0,0)"></path>
<path d="M 1159.92 1406.97 C 1160.49 1406.98 1160.54 1406.9 1160.93 1407.15 C 1161.19 1407.7 1161.07 1414.86 1160.61 1415.74 C 1164.03 1414.51 1128.83 1414.65 1129.35 1414.65 C 1129.16 1418.63 1129.26 1422.83 1129.3 1426.83 C 1128.41 1426.83 1152.17 1426.87 1148.83 1426.1 C 1149.92 1427.56 1149.94 1434.05 1148.51 1435.5 C 1147.41 1434.2 1147.25 1434.07 1145.49 1434.07 C 1140.09 1434.09 1134.69 1434.07 1129.29 1434.02 L 1129.28 1447.66 C 1139.27 1447.84 1148.84 1448.05 1158.86 1448.01 C 1164.52 1443.76 1161.29 1456.75 1161.32 1456.72 C 1159.42 1456.55 1158.94 1455.04 1155.51 1455 C 1143.92 1454.85 1131.67 1455.53 1120.16 1454.92 L 1120.29 1407.57 C 1128.56 1407.36 1153.74 1408.24 1159.92 1406.97 z" fill="rgb(255,255,255)" transform="translate(0,0)"></path>
<path d="M 871.621 1406.9 C 871.831 1406.93 872.042 1406.97 872.252 1407 C 872.882 1407.67 872.576 1413.57 872.603 1414.9 L 872.586 1414.85 L 840.469 1414.74 C 840.453 1418.9 840.595 1422.62 840.764 1426.76 C 839.325 1426.77 864.663 1426.55 860.405 1425.37 C 861.365 1426.43 860.915 1432.14 860.894 1433.81 C 854.113 1434.01 847.541 1434 840.757 1434.01 C 840.713 1438.67 840.697 1443.34 840.709 1448.01 L 868.142 1447.93 C 869.51 1447.55 871.197 1446.84 872.486 1446.56 C 873.242 1448.55 873.547 1454.71 872.504 1456.48 C 866.366 1453.62 840.076 1455.18 831.323 1455 C 831.859 1441.06 831.914 1421.62 831.532 1407.62 C 838.717 1407.66 866.055 1408.17 871.621 1406.9 z" fill="rgb(255,255,255)" transform="translate(0,0)"></path>
<path d="M 1460.72 1407.04 C 1461.84 1408.84 1461.51 1414.58 1460.52 1416.49 C 1456.58 1414.34 1460.19 1414.76 1453.98 1414.68 L 1429.47 1414.49 C 1429.43 1418.67 1429.44 1422.85 1429.49 1427.02 C 1437.26 1426.93 1442.25 1428.26 1448.94 1425.46 C 1451.13 1425.93 1449.93 1435.07 1449.52 1435.57 C 1449.37 1435.55 1449.09 1435.55 1448.93 1435.36 C 1447.14 1433.2 1433.29 1434.1 1429.37 1434.1 C 1429.34 1438.73 1429.35 1443.37 1429.37 1448 C 1438.67 1447.99 1447.96 1448.04 1457.25 1448.15 C 1458.09 1447.98 1461.79 1446.53 1461.57 1446.52 L 1461.8 1446.93 L 1461.52 1446.48 C 1462.34 1448.45 1462.45 1455.03 1461.57 1456.56 L 1461.39 1456.6 C 1459.12 1455.8 1460.65 1455.17 1457.5 1455.13 L 1420.59 1454.97 C 1420.51 1439.03 1420.3 1423.63 1420.41 1407.62 C 1430.79 1407.45 1451.39 1408.19 1460.72 1407.04 z" fill="rgb(255,255,255)" transform="translate(0,0)"></path>
<path d="M 644.32 1407.34 C 647.66 1407.33 651.958 1407 655.169 1407.55 C 656.519 1408.53 653.928 1410.2 654.149 1411.55 C 655.562 1420.18 651.126 1438.53 656.475 1445.04 C 660.267 1449.66 678.828 1448.74 680.854 1444.41 C 684.156 1437.34 682.815 1416.16 682.381 1407.8 C 683.402 1407.71 691.943 1407.16 692.31 1408.21 C 691.995 1408.57 691.774 1408.58 691.262 1408.81 C 689.795 1435.63 700.153 1459.36 661.47 1455.36 C 635.81 1452.7 649.035 1424.21 644.32 1407.34 z" fill="rgb(255,255,255)" transform="translate(0,0)"></path>
<path d="M 595.695 1407.09 C 610.967 1406.29 612.179 1408.13 625.172 1415.13 L 625.248 1415.04 C 624.211 1416.43 621.119 1422.45 620.454 1422.73 C 619.292 1422.19 617.51 1419.32 615.808 1418.24 C 610.183 1414.75 603.967 1414.22 597.5 1414.98 C 581.641 1416.85 575.894 1436.07 590.001 1444.86 C 596.837 1449.12 603.078 1448.53 610.775 1446.55 C 616.624 1443.3 617.525 1444.07 620.556 1438.49 C 622.36 1439.26 623.354 1443.05 625.439 1446.11 L 625.339 1445.94 C 577.467 1478.43 551.066 1418.38 595.695 1407.09 z" fill="rgb(255,255,255)" transform="translate(0,0)"></path>
<path d="M 1368.36 1407.11 C 1385.28 1405.52 1385.99 1408.52 1399.63 1415.05 C 1399.03 1416.14 1395.59 1422.11 1394.92 1422.55 C 1394.06 1422.1 1392.73 1420.15 1391.67 1419.3 C 1384.74 1412.68 1364.81 1412.35 1359.67 1421.7 C 1349.29 1440.56 1366.46 1450.31 1383.07 1447.19 C 1390.5 1444.14 1390.6 1443.87 1395.27 1438.31 C 1396.06 1439.73 1399.13 1445.59 1400.11 1446.5 L 1399.81 1446.09 C 1388.59 1453.38 1374.93 1459.95 1362.43 1453.24 C 1338.39 1440.34 1344.74 1415.13 1368.36 1407.11 z" fill="rgb(255,255,255)" transform="translate(0,0)"></path>
<path d="M 1271.04 1443.85 C 1275.47 1433.45 1279.54 1422.89 1284.22 1412.6 C 1284.76 1411.4 1285.27 1410.8 1284.32 1409.67 C 1284.02 1409.26 1283.72 1408.86 1283.42 1408.46 C 1284.34 1406.77 1290.07 1407.89 1291.52 1407.56 C 1298.06 1406.11 1292.98 1412.42 1291.3 1416.74 C 1286.7 1426.66 1282.77 1437.12 1278.08 1447.01 C 1275 1453.49 1276.09 1450.39 1277.53 1454.55 L 1277.52 1454.55 C 1276.34 1455.22 1268.47 1454.77 1266.59 1454.85 C 1264.13 1448.53 1248.43 1411.04 1246.18 1407.7 C 1248.29 1407.64 1257.21 1407.02 1258.49 1408.48 C 1255.39 1413.22 1263.25 1423.45 1265.01 1429.45 C 1266.14 1433.3 1269.4 1440.07 1271.04 1443.85 z" fill="rgb(255,255,255)" transform="translate(0,0)"></path>
<path d="M 709.39 1406.4 C 718.083 1409.49 739.035 1406.41 749.01 1407.68 C 752.011 1408.06 754.249 1405.4 754.648 1406.13 C 755.346 1407.4 755.167 1415.25 754.403 1416 C 753.881 1416.03 753.749 1416.04 753.302 1415.71 C 750.988 1414.02 740.212 1414.77 736.542 1414.78 L 736.602 1439.33 C 736.554 1444.56 736.539 1449.78 736.556 1455 C 734.835 1455.19 729.43 1455.02 727.428 1455 C 727.926 1441.96 727.7 1427.94 727.74 1414.82 C 721.561 1414.84 715.757 1414.78 709.569 1415.11 C 709.404 1412.1 709.395 1409.39 709.39 1406.4 z" fill="rgb(255,255,255)" transform="translate(0,0)"></path>
<path d="M 954.835 1407.28 C 962.954 1407.29 971.279 1405.51 968.959 1410.48 C 968.211 1412.09 977.464 1423.87 979.565 1426.8 C 984.089 1419.99 988.167 1414.17 992.806 1407.45 L 990.367 1407.47 L 1002.33 1407.39 C 996.901 1414.15 993.844 1419.22 989.144 1426.47 C 987.237 1429.08 985.373 1431.93 983.575 1434.64 C 983.688 1438.25 983.367 1449.21 984.324 1452.67 C 984.181 1452.15 985.338 1454.12 985.469 1454.54 C 983.826 1455.25 976.713 1455.07 974.619 1455 C 975.019 1448.23 974.87 1441.5 974.855 1434.72 C 970.032 1427.43 961.02 1412.57 954.835 1407.28 z" fill="rgb(255,255,255)" transform="translate(0,0)"></path>
<path d="M 773.236 1407.9 C 775.031 1407.7 782.296 1407.17 783.594 1408.3 C 781.445 1416.1 782.454 1438.53 782.469 1447.67 C 790.397 1447.77 803.306 1448.77 810.541 1447.43 C 814.881 1446.62 813.53 1447.69 813.503 1454.97 C 812.06 1457.3 811.655 1455.33 806.626 1455 C 796.681 1454.36 782.934 1456.2 773.606 1454.98 C 773.878 1448.77 774.231 1413 773.236 1407.9 z" fill="rgb(255,255,255)" transform="translate(0,0)"></path>
<path d="M 1316.89 1407.72 L 1318.06 1407.67 C 1320.22 1407.59 1326.88 1406.95 1328.49 1408.44 L 1328.49 1408.51 C 1325.6 1411.64 1325.83 1450.17 1327.76 1454.74 C 1325.98 1455.31 1319.5 1455.05 1317.55 1454.97 C 1317.82 1447.7 1318.36 1412.85 1316.89 1407.72 z" fill="rgb(255,255,255)" transform="translate(0,0)"></path>
<metadata><recraft-signature>{"signed_by": "recraft", "signature_b64": "2m1wk5qykzIoYRTpt2EQvUZafO8mlMXVqn2NG8Xesky+sxCNZdDOB5HB+zqM2D8AgbtkG167QYUd/LomNfnRDg==", "signing_algo": "Ed25519", "generation_timestamp": 1771369323, "identifier": "7a31305a-9d9d-484d-9fe3-a97c9b649023"}</recraft-signature></metadata></svg>
